<?xml version="1.0" standalone="no"?>
<!DOCTYPE svg PUBLIC "-//W3C//DTD SVG 20010904//EN"
 "http://www.w3.org/TR/2001/REC-SVG-20010904/DTD/svg10.dtd">
<svg version="1.0" xmlns="http://www.w3.org/2000/svg"
 width="300.000000pt" height="300.000000pt" viewBox="0 0 300.000000 300.000000"
 preserveAspectRatio="xMidYMid meet">

<g transform="translate(0.000000,300.000000) scale(0.100000,-0.100000)"
fill="#000000" stroke="none">
<path d="M1331 2790 c-39 -54 -93 -81 -186 -95 -91 -13 -125 -32 -125 -70 0
-22 -30 -39 -148 -85 -42 -16 -62 -45 -62 -91 0 -31 4 -37 25 -41 20 -4 23 -2
15 8 -12 13 -6 16 59 29 l34 7 -34 -30 c-30 -27 -32 -31 -16 -37 11 -5 25 -1
35 8 10 9 41 22 69 28 43 10 65 9 130 -5 87 -18 100 -16 204 33 137 65 227 66
290 2 44 -44 63 -105 56 -179 -7 -62 6 -61 22 2 16 64 13 115 -8 161 -23 50
-43 68 -106 96 -78 34 -161 24 -278 -35 -90 -45 -122 -52 -162 -37 -14 6 -6 9
32 14 98 11 198 78 229 153 l14 34 79 0 c52 0 102 -7 146 -21 119 -36 205
-147 205 -262 0 -51 -26 -152 -51 -197 -11 -19 -17 -26 -14 -15 19 60 18 75
-6 83 -20 8 -27 4 -50 -32 -15 -23 -46 -60 -70 -82 l-44 -42 -130 -5 c-106 -3
-144 -9 -208 -31 -42 -14 -79 -26 -82 -26 -3 0 -14 18 -24 39 l-20 39 67 25
c105 39 178 51 300 51 99 0 112 2 112 17 0 24 -20 29 -120 29 -106 0 -231 -22
-317 -57 -51 -20 -66 -23 -78 -13 -24 20 -17 33 13 27 26 -5 25 -4 -13 30
-102 88 -264 139 -391 122 -160 -22 -306 -152 -354 -316 l-13 -42 -29 31 c-16
17 -31 28 -34 25 -3 -3 2 -29 10 -58 23 -75 20 -112 -14 -189 -35 -81 -39
-125 -10 -142 16 -10 20 -23 20 -63 -1 -27 -4 -69 -9 -91 -11 -57 6 -103 46
-127 31 -18 32 -18 43 4 8 15 9 19 1 15 -14 -9 -14 9 3 64 l13 44 7 -47 c6
-40 10 -46 22 -36 8 6 14 28 14 49 0 53 23 101 76 161 57 65 74 103 74 172 0
126 52 242 126 277 42 21 51 22 98 11 29 -6 76 -28 105 -47 63 -43 56 -17 -10
40 -166 142 -368 1 -369 -257 0 -77 -13 -120 -43 -145 -11 -9 -10 0 4 41 33
95 20 216 -28 270 -16 17 -15 21 10 73 60 122 186 214 293 214 28 0 72 -7 98
-16 55 -19 152 -104 198 -173 l30 -46 -44 49 -45 50 -22 -21 -21 -20 24 -44
c13 -24 39 -98 56 -164 56 -212 108 -294 204 -325 39 -12 131 -9 171 6 14 5
12 0 -8 -16 -47 -38 -126 -62 -220 -68 l-87 -5 -34 74 c-19 41 -44 108 -57
149 -23 78 -35 78 -39 0 l-2 -35 -8 35 c-5 19 -4 57 1 84 15 79 12 85 -24 45
-50 -57 -103 -153 -127 -232 -30 -100 -31 -102 -81 -105 -42 -3 -43 -3 -26 16
14 15 15 21 5 24 -28 10 44 194 121 307 32 47 32 61 1 61 -40 0 -180 -283
-180 -366 0 -16 -18 -32 -66 -60 -81 -47 -169 -140 -203 -214 -19 -42 -26 -76
-29 -146 -6 -137 21 -218 110 -326 38 -46 38 -48 16 -48 -14 0 -33 -6 -43 -14
-17 -12 -14 -14 34 -25 72 -15 104 -34 143 -82 93 -116 88 -112 134 -105 45 6
78 -10 152 -75 56 -49 164 -33 147 22 -5 13 -10 17 -14 10 -5 -8 -11 -8 -22 2
-23 20 -65 72 -49 61 8 -5 27 -15 43 -22 25 -11 27 -10 27 13 0 15 -6 25 -14
25 -20 0 -71 45 -94 83 -11 18 -27 56 -36 86 -15 51 -15 53 2 39 78 -66 123
-101 126 -97 2 2 6 13 9 24 4 15 -7 30 -46 61 -75 58 -160 164 -204 252 -21
43 -39 79 -41 81 -1 3 -10 -3 -19 -12 -16 -16 -15 -20 11 -74 15 -32 40 -76
55 -98 46 -69 46 -69 11 -49 -62 35 -167 146 -180 191 -26 86 20 167 129 224
l56 29 -40 -6 c-84 -13 -149 -55 -181 -116 -20 -38 -17 -135 5 -183 28 -63 69
-104 158 -162 46 -29 83 -55 83 -57 0 -2 7 -19 15 -38 13 -33 10 -31 -49 28
-51 50 -73 66 -119 79 -32 9 -76 15 -100 13 l-42 -3 -45 88 c-39 77 -45 99
-48 163 -9 170 95 282 288 313 93 15 127 12 51 -5 -36 -8 -66 -15 -67 -17 -1
-1 0 -15 3 -30 5 -24 9 -27 32 -22 15 3 91 -11 185 -35 289 -73 395 -48 452
107 25 68 34 74 34 22 0 -59 -23 -147 -56 -212 -36 -70 -133 -212 -184 -267
-48 -52 -40 -32 24 60 l45 65 -102 12 c-56 7 -130 19 -164 28 -34 8 -67 15
-74 15 -20 0 9 -27 54 -50 36 -19 38 -21 12 -15 -29 6 -67 29 -127 75 -42 32
-37 5 19 -103 36 -69 67 -112 125 -171 l78 -79 0 -73 c0 -149 45 -268 133
-351 96 -91 202 -129 331 -120 45 3 91 9 104 13 21 6 22 5 12 -20 -5 -15 -10
-37 -10 -48 0 -17 10 -11 58 35 62 59 93 72 195 82 63 7 97 30 97 65 0 21 58
55 132 79 50 16 78 54 78 102 0 36 -2 39 -27 39 -20 0 -24 -3 -14 -9 17 -11 6
-18 -44 -26 l-40 -6 28 21 c15 12 27 25 27 30 0 19 -33 18 -60 -1 -33 -25 -99
-34 -166 -24 -33 5 -43 9 -33 16 12 7 12 11 -2 24 -14 14 -24 13 -110 -16 -87
-30 -106 -33 -245 -36 l-151 -3 -14 32 c-8 19 -14 67 -14 110 0 72 -1 75 -14
50 -8 -14 -16 -56 -18 -92 -6 -90 22 -143 98 -183 49 -26 62 -28 134 -25 72 3
89 8 175 51 86 43 99 47 135 39 l40 -8 -50 -8 c-99 -15 -188 -73 -225 -146
-22 -42 -35 -50 -89 -50 -191 0 -340 109 -358 261 -7 62 11 147 48 224 16 33
26 51 23 40 -18 -55 -28 -95 -23 -98 2 -3 14 -8 26 -11 18 -6 25 -1 39 26 9
17 69 87 134 153 131 137 170 200 170 277 0 59 -15 98 -64 161 l-36 48 31 -17
c50 -25 128 -103 171 -169 22 -33 69 -121 104 -195 36 -74 81 -156 100 -183
l35 -49 -33 7 -33 7 45 -36 c115 -93 278 -141 396 -117 157 31 290 149 340
300 l17 52 28 -27 c16 -15 32 -25 35 -21 3 3 -1 27 -10 53 -24 70 -20 120 14
192 35 75 38 112 9 138 -20 18 -21 25 -14 131 l7 112 -27 26 c-33 30 -56 32
-72 5 -11 -16 -10 -18 2 -14 18 7 18 1 1 -55 l-13 -45 -7 42 c-10 63 -43 50
-37 -15 4 -44 -28 -109 -82 -169 -53 -59 -67 -89 -67 -146 0 -114 -45 -240
-100 -280 -14 -10 -39 -20 -56 -24 l-31 -6 43 86 c44 91 69 175 80 271 7 56 6
57 -14 46 -22 -12 -27 -23 -37 -90 -15 -94 -103 -301 -128 -301 -16 0 -78 32
-74 39 44 83 90 189 102 236 17 66 20 139 6 130 -5 -3 -49 -1 -98 5 -48 6
-122 14 -163 17 -69 6 -79 9 -118 44 -53 46 -122 64 -197 50 -27 -5 -52 -8
-54 -6 -7 8 66 46 119 63 46 14 83 16 230 13 96 -3 221 -5 278 -5 56 -1 102
-4 102 -8 0 -4 -10 -14 -22 -23 l-23 -17 25 7 c110 33 230 117 288 205 59 88
76 152 70 266 -6 109 -40 194 -108 268 -44 47 -44 48 13 60 40 9 33 22 -15 30
-78 12 -124 42 -178 117 -52 71 -82 89 -118 70 -20 -11 -53 7 -146 79 -45 35
-92 39 -126 12 -18 -14 -21 -24 -15 -43 7 -21 9 -21 14 -6 6 15 12 12 46 -23
l40 -41 -37 15 c-47 20 -48 20 -48 -2 0 -10 13 -23 31 -31 41 -18 83 -79 110
-159 24 -74 47 -100 151 -174 106 -77 153 -166 128 -243 -13 -38 -83 -115
-105 -115 -7 0 -19 14 -26 32 -24 58 -131 189 -203 249 -66 54 -71 57 -79 37
-6 -17 6 -33 72 -95 76 -70 181 -209 181 -238 0 -7 -6 -16 -12 -18 -7 -3 -3
-6 8 -6 20 -1 34 -18 34 -42 0 -10 -44 -12 -75 -3 -11 3 -40 39 -65 81 -40 66
-186 223 -209 223 -4 0 -15 -13 -24 -29 -38 -65 -143 -199 -192 -247 -39 -37
-59 -67 -75 -112 -13 -34 -25 -62 -28 -62 -3 0 -2 33 1 73 7 103 44 186 163
364 56 85 111 174 121 199 20 50 28 54 38 22 6 -20 8 -18 15 17 33 156 -23
353 -127 444 -117 104 -306 147 -430 100 -22 -8 -24 -7 -18 8 13 35 17 73 8
73 -5 0 -19 -14 -32 -30z m-205 -165 c-30 -16 -43 -14 -31 4 3 6 18 11 33 11
l27 0 -29 -15z m1183 -235 l16 -25 -32 23 c-36 26 -41 35 -17 30 9 -2 24 -14
33 -28z m-18 -209 c48 -24 75 -31 120 -31 52 0 60 -3 79 -29 47 -67 74 -144
78 -226 4 -75 2 -84 -30 -144 -53 -102 -150 -156 -298 -166 l-65 -4 50 10 c76
15 75 14 65 48 -5 20 -5 33 2 37 5 3 7 15 5 26 -4 12 1 21 11 25 42 15 101 65
117 99 13 28 16 53 13 106 -8 99 -51 161 -163 233 -84 54 -106 78 -120 125 -6
18 4 10 33 -26 28 -36 60 -61 103 -83z m-751 -174 c0 -2 -10 -12 -22 -23 l-23
-19 19 23 c18 21 26 27 26 19z m-211 -171 c21 -46 43 -86 48 -89 5 -3 18 8 28
26 l19 32 7 -42 c9 -51 30 -92 70 -138 36 -41 19 -39 -48 7 -69 46 -107 100
-141 198 -17 49 -29 90 -26 90 2 0 22 -38 43 -84z m511 -50 c-17 -25 -35 -46
-41 -46 -13 0 -3 17 36 62 41 48 44 39 5 -16z m-1504 -84 c-12 -12 -18 8 -10
35 l8 28 4 -28 c2 -16 1 -31 -2 -35z m2173 -414 c-32 -93 -23 -205 23 -270 19
-27 19 -28 -8 -80 -37 -74 -124 -161 -187 -189 -76 -33 -156 -31 -227 6 -58
29 -152 119 -184 176 -16 29 -12 26 26 -16 38 -41 48 -47 60 -37 8 6 17 9 20
6 3 -3 15 7 27 21 l20 27 36 -22 c26 -16 34 -27 30 -40 -8 -25 34 -39 47 -16
6 11 23 16 55 16 128 0 223 137 223 323 0 37 5 78 11 90 10 20 39 57 44 57 1
0 -6 -24 -16 -52z m-489 16 c47 -9 87 -18 89 -19 8 -8 -185 8 -201 17 -26 13
-22 29 5 24 12 -3 60 -13 107 -22z m661 -51 c-9 -16 -10 -15 -11 8 0 14 3 29
8 33 12 12 14 -22 3 -41z m-666 -281 c2 -2 8 20 13 50 l10 53 1 -65 c1 -85
-10 -103 -33 -53 -17 40 -46 141 -45 158 1 6 12 -24 25 -65 14 -41 27 -76 29
-78z m-1291 -367 c10 -7 16 -19 14 -25 -2 -6 -14 0 -27 14 -26 28 -18 35 13
11z m819 -102 c-18 -2 -48 -2 -65 0 -18 2 -4 4 32 4 36 0 50 -2 33 -4z m372
-132 c-6 -5 -21 -12 -35 -15 -24 -7 -24 -6 -6 8 21 17 57 23 41 7z"/>
<path d="M2436 2102 c-9 -14 34 -71 50 -65 18 7 18 18 -2 48 -16 25 -38 32
-48 17z"/>
<path d="M2493 1975 c7 -24 16 -35 29 -35 15 0 17 5 12 28 -9 38 -13 42 -34
42 -16 0 -17 -4 -7 -35z"/>
<path d="M2502 1878 c2 -25 8 -34 26 -36 19 -3 22 1 22 32 0 32 -3 36 -26 36
-23 0 -25 -3 -22 -32z"/>
<path d="M2472 1794 c-11 -22 -10 -28 5 -40 26 -19 31 -18 48 17 19 35 19 35
-16 44 -21 5 -27 2 -37 -21z"/>
<path d="M2421 1729 c-19 -16 -23 -24 -15 -37 16 -24 28 -25 55 -3 l24 20 -20
20 -20 20 -24 -20z"/>
<path d="M2334 1677 c-17 -9 -20 -17 -13 -34 10 -27 10 -27 44 -11 26 12 29
17 19 42 -7 19 -21 20 -50 3z"/>
<path d="M2470 963 c-15 -43 -15 -46 -2 -51 6 -2 20 11 32 28 18 25 19 34 10
45 -18 22 -25 19 -40 -22z"/>
<path d="M2410 875 c-18 -20 -21 -28 -12 -37 10 -10 18 -6 38 14 15 14 23 31
20 37 -11 17 -20 14 -46 -14z"/>
<path d="M2033 861 c-11 -17 -9 -23 16 -40 l29 -21 15 23 c13 20 12 24 -9 40
-29 22 -36 21 -51 -2z"/>
<path d="M2333 828 c-26 -12 -32 -58 -9 -58 25 0 58 34 51 53 -8 19 -11 20
-42 5z"/>
<path d="M2120 809 c-14 -24 -6 -35 31 -44 22 -5 27 -2 32 17 7 25 2 33 -30
42 -16 5 -25 1 -33 -15z"/>
<path d="M2217 803 c-4 -3 -7 -17 -7 -30 0 -19 5 -23 33 -23 41 0 45 4 39 35
-3 19 -11 25 -31 25 -15 0 -31 -3 -34 -7z"/>
<path d="M1447 2619 c-5 -18 -1 -20 36 -17 30 2 43 8 45 21 3 14 -4 17 -36 17
-32 0 -41 -4 -45 -21z"/>
<path d="M1557 2616 c-3 -8 7 -17 29 -24 29 -9 36 -8 44 8 8 14 5 19 -13 24
-35 9 -54 7 -60 -8z"/>
<path d="M1653 2591 c-10 -15 -7 -22 17 -39 27 -20 28 -20 44 -3 18 19 13 27
-30 49 -16 8 -22 7 -31 -7z"/>
<path d="M1736 2531 c-15 -16 -16 -23 -5 -43 6 -13 13 -24 14 -26 1 -1 14 3
28 9 27 12 27 20 -5 62 -13 18 -14 18 -32 -2z"/>
<path d="M1771 2441 c-14 -9 -7 -71 9 -71 22 0 40 14 40 30 0 44 -19 60 -49
41z"/>
<path d="M1767 2318 c-6 -39 -7 -37 24 -40 21 -3 24 1 27 35 3 33 1 37 -21 37
-20 0 -26 -6 -30 -32z"/>
<path d="M744 2243 c-16 -3 -20 -10 -16 -29 3 -19 11 -24 32 -24 29 0 49 28
35 50 -6 10 -13 11 -51 3z"/>
<path d="M826 2218 c-9 -35 -8 -36 25 -43 34 -8 34 -8 43 21 5 18 1 24 -25 33
-18 6 -33 11 -34 11 -2 0 -5 -10 -9 -22z"/>
<path d="M657 2214 c-29 -16 -36 -41 -13 -50 21 -8 56 14 56 36 0 27 -11 30
-43 14z"/>
<path d="M913 2171 c-10 -15 -7 -21 16 -39 21 -15 31 -18 40 -9 16 16 14 31
-7 50 -24 22 -34 21 -49 -2z"/>
<path d="M571 2144 c-17 -21 -19 -30 -9 -41 10 -12 15 -10 35 10 15 15 21 29
17 40 -9 24 -19 21 -43 -9z"/>
<path d="M511 2059 c-15 -24 -17 -36 -9 -46 16 -20 23 -16 41 21 14 29 14 36
2 46 -11 10 -18 5 -34 -21z"/>
<path d="M642 1364 c-29 -12 -31 -15 -20 -34 15 -23 18 -23 52 -11 18 8 23 15
19 31 -8 28 -14 30 -51 14z"/>
<path d="M553 1311 c-28 -24 -29 -33 -2 -50 19 -11 24 -10 43 8 16 17 18 25
10 38 -15 24 -26 25 -51 4z"/>
<path d="M496 1252 c-3 -5 -10 -20 -15 -34 -8 -22 -6 -27 15 -36 21 -10 25 -8
39 17 11 23 12 31 2 38 -24 19 -36 23 -41 15z"/>
<path d="M462 1123 c2 -31 7 -39 26 -41 19 -3 22 1 22 31 0 23 -6 37 -16 41
-30 11 -35 6 -32 -31z"/>
<path d="M1610 1139 c0 -4 11 -31 24 -61 30 -69 88 -230 83 -234 -2 -2 -21 32
-42 76 -22 44 -41 80 -45 80 -3 0 -24 -29 -48 -64 -24 -35 -73 -96 -109 -135
-68 -75 -67 -87 7 -45 l45 26 -24 -26 c-13 -13 -52 -37 -87 -52 -38 -16 -61
-31 -56 -36 16 -16 184 -21 258 -9 71 13 183 47 197 60 4 4 -8 41 -27 82 -19
41 -54 117 -79 170 -39 85 -97 184 -97 168z"/>
<path d="M470 1046 c0 -14 24 -66 30 -66 15 0 21 18 14 45 -4 16 -13 25 -25
25 -10 0 -19 -2 -19 -4z"/>
<path d="M510 950 c0 -6 7 -24 15 -40 11 -21 20 -27 35 -23 25 7 25 7 -2 43
-21 30 -48 40 -48 20z"/>
<path d="M1190 685 c0 -31 3 -35 25 -35 18 0 25 5 25 19 0 11 3 26 6 35 5 13
-1 16 -25 16 -29 0 -31 -3 -31 -35z"/>
<path d="M1190 593 c0 -41 11 -52 39 -42 18 7 22 14 17 32 -3 12 -6 25 -6 30
0 4 -11 7 -25 7 -21 0 -25 -5 -25 -27z"/>
<path d="M1222 518 c-8 -8 -6 -18 9 -40 20 -27 21 -27 43 -11 22 16 22 20 9
40 -17 25 -42 30 -61 11z"/>
<path d="M1290 445 c-7 -9 -11 -17 -9 -19 19 -14 55 -36 60 -36 16 0 18 34 3
51 -21 23 -37 24 -54 4z"/>
<path d="M1376 395 c-6 -16 -1 -19 47 -29 22 -5 27 -3 27 13 0 29 -63 43 -74
16z"/>
<path d="M1513 393 c-49 -6 -44 -33 6 -33 30 0 40 4 44 20 3 12 0 19 -6 18 -7
0 -27 -3 -44 -5z"/>
</g>
</svg>
